<svg width="400" height="400" viewBox="0 0 400 400" fill="none" xmlns="http://www.w3.org/2000/svg">
<path d="M177.14 288.895L98.0389 339.67V278.01C46.3625 276.563 32.6837 252.323 32 172.783C33.0152 88.021 56.3829 62.9359 141.581 61.0248H258.419C346.408 60.0301 366.065 88.7758 368 172.783C366.161 261.723 338.587 287.508 258.419 288.895H177.14Z" fill="#70EB0C" stroke="black" stroke-width="2.90281"/>
<path d="M146 129.75C153.833 117.917 163.25 112 174.25 112C191.25 112 203.917 119.25 212.25 133.75C214.083 131.25 216.25 128.667 218.75 126C221.417 123.167 225.583 120.167 231.25 117C236.917 113.667 242.75 112 248.75 112C262.083 112 273.25 117.167 282.25 127.5C291.25 137.667 295.75 154.583 295.75 178.25V222C295.75 225.833 295.583 228.75 295.25 230.75C295.083 232.583 294.333 234.75 293 237.25C290.833 241.75 284.417 244 273.75 244C263.25 244 256.833 241.667 254.5 237C253.333 234.5 252.583 232.333 252.25 230.5C252.083 228.5 252 225.583 252 221.75V178C252 163.5 246.833 156.25 236.5 156.25C230.667 156.25 226.667 158.167 224.5 162C222.5 165.833 221.5 171.25 221.5 178.25V222C221.5 226 221.333 228.917 221 230.75C220.833 232.583 220.083 234.75 218.75 237.25C216.417 241.75 209.917 244 199.25 244C188.75 244 182.333 241.667 180 237C178.833 234.5 178.083 232.333 177.75 230.5C177.583 228.5 177.5 225.583 177.5 221.75V178C177.5 163.5 172.333 156.25 162 156.25C152 156.25 147 163.5 147 178V222.25C147 226.083 146.833 229 146.5 231C146.333 232.833 145.583 235 144.25 237.5C141.75 241.833 135.25 244 124.75 244C114.25 244 107.833 241.75 105.5 237.25C104.333 234.75 103.583 232.583 103.25 230.75C103.083 228.917 103 226 103 222V134C103 130.167 103.083 127.333 103.25 125.5C103.583 123.5 104.417 121.333 105.75 119C108.25 114.5 114.167 112.25 123.5 112.25C132.833 112.25 138.917 113.75 141.75 116.75C144.583 119.75 146 124.083 146 129.75Z" fill="black"/>
</svg>
